<?xml version="1.0" encoding="UTF-8"?> <svg xmlns="http://www.w3.org/2000/svg" xmlns:xlink="http://www.w3.org/1999/xlink" version="1.1" id="Layer_1" x="0px" y="0px" width="160px" height="26px" viewBox="0 0 160 26" xml:space="preserve"> <defs> <style> .cls-1 { fill: #fff; } .cls-2 { fill: #f5831f; opacity: .75; } </style> </defs> <g id="Layer_1-2"> <g> <g> <g> <path class="cls-1" fill="#010101" d="M86.733,0.412V25.59c0,0.171-0.138,0.308-0.309,0.308h-5.832c-0.17,0-0.308-0.137-0.308-0.308V14.799 l0.156-8.09h-0.077l-5.953,18.974c-0.04,0.127-0.159,0.215-0.293,0.215h-5.449c-0.134,0-0.254-0.088-0.294-0.215L62.464,6.709 h-0.117l0.157,8.09V25.59c0,0.171-0.138,0.308-0.309,0.308h-5.871c-0.169,0-0.308-0.137-0.308-0.308V0.412 c-0.001-0.171,0.136-0.31,0.307-0.31h9.857c0.137,0,0.256,0.089,0.295,0.221l3.725,12.48l1.368,5.276h0.078l1.368-5.276 l3.687-12.479c0.039-0.131,0.159-0.222,0.296-0.222h9.427c0.169,0,0.307,0.139,0.307,0.309L86.733,0.412z"></path> <path class="cls-1" fill="#010101" d="M51.696,4.109c-0.808-1.29-1.975-2.28-3.498-2.971c-1.524-0.69-3.355-1.036-5.491-1.036h-9.882 c-2.045,0-3.702,1.658-3.702,3.703v18.389c0,2.048,1.657,3.703,3.702,3.703h3.337c0.17,0,0.308-0.137,0.308-0.308V13.003 l4.297,4.298c0.175,0.175,0.413,0.275,0.659,0.275H42.5c2.137,0,4.172-0.34,5.698-1.018c1.523-0.677,2.69-1.667,3.498-2.971 c0.808-1.303,1.21-2.878,1.21-4.729C52.907,7.008,52.503,5.4,51.696,4.109L51.696,4.109z M44.466,11.341 c-0.679,0.561-1.874,0.84-3.176,0.84h-4.512c-0.17,0-0.307-0.139-0.307-0.309V5.844c0-0.17,0.137-0.309,0.309-0.309h4.717 c1.302,0,2.292,0.274,2.97,0.821c0.677,0.547,1.016,1.381,1.016,2.501C45.483,9.979,45.144,10.779,44.466,11.341L44.466,11.341z "></path> <path class="cls-1" fill="#010101" d="M98.111,0.103h-6.692c-0.291,0-0.438,0.354-0.231,0.561l6.057,6.057 c0.194,0.194,0.058,0.526-0.217,0.526H91.4c-0.17,0-0.31,0.138-0.31,0.309V25.59c0,0.171,0.138,0.308,0.308,0.308h3.336 c2.046,0,3.703-1.655,3.703-3.703V0.432c0-0.183-0.146-0.329-0.328-0.329H98.111z"></path> </g> <g> <path class="cls-1" fill="#010101" d="M106.017,0.868c0.434,0,0.808,0.074,1.121,0.223c0.315,0.147,0.56,0.357,0.733,0.628 c0.174,0.27,0.259,0.595,0.259,0.972c0,0.378-0.086,0.712-0.259,0.982c-0.174,0.271-0.418,0.479-0.733,0.627 c-0.313,0.148-0.688,0.221-1.121,0.221h-1.598V7.1h-0.472V0.868H106.017L106.017,0.868z M105.958,4.077 c0.547,0,0.965-0.12,1.245-0.363c0.285-0.242,0.426-0.583,0.426-1.023s-0.141-0.782-0.426-1.025 c-0.28-0.242-0.698-0.364-1.245-0.364h-1.539v2.776H105.958L105.958,4.077z"></path> <path class="cls-1" fill="#010101" d="M109.347,7.1V2.379h0.397l0.057,0.991c0.121-0.334,0.312-0.599,0.576-0.793 c0.264-0.195,0.581-0.292,0.955-0.292c0.124,0,0.237,0.013,0.339,0.036c0.101,0.025,0.183,0.066,0.245,0.123l-0.104,0.416 c-0.068-0.044-0.146-0.079-0.228-0.104c-0.082-0.024-0.203-0.037-0.368-0.037c-0.238,0-0.466,0.074-0.68,0.223 c-0.213,0.147-0.388,0.352-0.519,0.612c-0.133,0.262-0.2,0.563-0.2,0.902V7.1H109.347z"></path> <path class="cls-1" fill="#010101" d="M114.617,2.285c0.439,0,0.828,0.097,1.164,0.292c0.338,0.194,0.604,0.477,0.794,0.844 c0.192,0.369,0.287,0.809,0.287,1.318c0,0.509-0.095,0.947-0.287,1.315c-0.19,0.369-0.456,0.65-0.794,0.846 c-0.336,0.194-0.725,0.292-1.164,0.292c-0.441,0-0.829-0.098-1.167-0.292c-0.337-0.195-0.602-0.477-0.794-0.846 c-0.19-0.368-0.288-0.807-0.288-1.315c0-0.51,0.094-0.949,0.288-1.318c0.192-0.367,0.457-0.649,0.794-0.844 C113.788,2.382,114.176,2.285,114.617,2.285z M114.617,2.69c-0.36,0-0.671,0.083-0.936,0.246 c-0.264,0.164-0.47,0.398-0.617,0.703c-0.148,0.307-0.222,0.672-0.222,1.1c0,0.429,0.073,0.787,0.222,1.096 s0.354,0.544,0.617,0.707c0.266,0.165,0.575,0.246,0.936,0.246c0.357,0,0.671-0.081,0.934-0.246 c0.265-0.163,0.472-0.398,0.62-0.707c0.146-0.309,0.22-0.674,0.22-1.096s-0.073-0.793-0.22-1.1 c-0.148-0.305-0.355-0.539-0.62-0.703C115.288,2.773,114.975,2.69,114.617,2.69z"></path> <path class="cls-1" fill="#010101" d="M120.121,2.285c0.32,0,0.607,0.049,0.859,0.15c0.251,0.101,0.466,0.246,0.643,0.435 c0.175,0.188,0.311,0.419,0.405,0.689l-0.444,0.207c-0.099-0.339-0.274-0.603-0.523-0.787c-0.248-0.187-0.565-0.279-0.948-0.279 c-0.346,0-0.649,0.08-0.915,0.241c-0.267,0.16-0.469,0.393-0.614,0.698c-0.146,0.307-0.217,0.672-0.217,1.1 c0,0.429,0.071,0.787,0.217,1.096s0.346,0.543,0.604,0.704c0.26,0.16,0.563,0.24,0.915,0.24c0.266,0,0.506-0.044,0.723-0.132 c0.218-0.088,0.396-0.216,0.538-0.387c0.143-0.171,0.234-0.371,0.279-0.605l0.434,0.152c-0.082,0.289-0.215,0.538-0.4,0.745 c-0.185,0.208-0.41,0.367-0.675,0.478s-0.56,0.165-0.889,0.165c-0.428,0-0.809-0.099-1.146-0.292 c-0.338-0.196-0.597-0.479-0.788-0.846c-0.187-0.368-0.281-0.808-0.281-1.316c0-0.51,0.095-0.949,0.288-1.317 c0.19-0.368,0.456-0.65,0.793-0.845c0.335-0.195,0.718-0.293,1.146-0.293L120.121,2.285z"></path> <path class="cls-1" fill="#010101" d="M125.267,7.193c-0.435,0-0.822-0.097-1.161-0.292c-0.34-0.194-0.605-0.477-0.8-0.845 c-0.189-0.368-0.287-0.808-0.287-1.317c0-0.508,0.098-0.948,0.287-1.316c0.194-0.368,0.454-0.649,0.78-0.845 c0.328-0.194,0.701-0.293,1.124-0.293c0.422,0,0.794,0.095,1.095,0.283c0.302,0.19,0.536,0.453,0.699,0.789 c0.163,0.337,0.246,0.726,0.246,1.166c0,0.058-0.003,0.113-0.006,0.166c-0.004,0.055-0.008,0.104-0.015,0.146h-3.916V4.409 h3.708l-0.235,0.066c-0.006-0.542-0.147-0.973-0.43-1.293c-0.279-0.322-0.666-0.481-1.156-0.481c-0.341,0-0.639,0.08-0.896,0.24 c-0.261,0.161-0.461,0.394-0.606,0.699c-0.145,0.306-0.217,0.672-0.217,1.101c0,0.428,0.075,0.786,0.222,1.095 c0.149,0.309,0.356,0.543,0.623,0.703c0.268,0.162,0.578,0.241,0.931,0.241s0.679-0.079,0.94-0.236 c0.259-0.157,0.462-0.374,0.608-0.651l0.376,0.217c-0.113,0.227-0.263,0.42-0.453,0.581c-0.188,0.16-0.405,0.284-0.65,0.372 c-0.246,0.089-0.515,0.134-0.812,0.134V7.193z"></path> <path class="cls-1" fill="#010101" d="M130.193,7.193c-0.478,0-0.9-0.097-1.27-0.292c-0.367-0.194-0.628-0.475-0.778-0.841l0.406-0.273 c0.114,0.314,0.317,0.559,0.608,0.731c0.294,0.173,0.649,0.259,1.073,0.259c0.42,0,0.74-0.081,0.977-0.245 s0.353-0.38,0.353-0.651c0-0.182-0.058-0.341-0.174-0.477c-0.117-0.136-0.335-0.237-0.657-0.307l-1.104-0.237 c-0.452-0.094-0.774-0.246-0.969-0.458c-0.19-0.21-0.287-0.468-0.287-0.77c0-0.251,0.075-0.478,0.229-0.679 c0.15-0.202,0.359-0.365,0.628-0.487c0.267-0.122,0.581-0.185,0.938-0.185c0.473,0,0.862,0.094,1.172,0.279 c0.308,0.185,0.523,0.465,0.648,0.836l-0.394,0.255c-0.095-0.334-0.271-0.577-0.524-0.727c-0.255-0.152-0.557-0.228-0.902-0.228 c-0.264,0-0.494,0.039-0.693,0.118c-0.198,0.078-0.351,0.186-0.463,0.321c-0.11,0.134-0.164,0.29-0.164,0.467 c0,0.177,0.063,0.348,0.188,0.495c0.125,0.148,0.35,0.257,0.671,0.326l1.134,0.246c0.446,0.094,0.758,0.237,0.933,0.429 c0.179,0.192,0.266,0.429,0.266,0.712s-0.075,0.529-0.229,0.736c-0.149,0.207-0.363,0.367-0.64,0.478 c-0.278,0.109-0.603,0.164-0.973,0.164L130.193,7.193z"></path> <path class="cls-1" fill="#010101" d="M134.952,7.193c-0.477,0-0.902-0.097-1.27-0.292c-0.37-0.194-0.628-0.475-0.778-0.841l0.405-0.273 c0.112,0.314,0.315,0.559,0.609,0.731c0.291,0.173,0.649,0.259,1.072,0.259c0.422,0,0.741-0.081,0.977-0.245 c0.236-0.164,0.354-0.38,0.354-0.651c0-0.182-0.059-0.341-0.174-0.477c-0.116-0.136-0.335-0.237-0.656-0.307l-1.104-0.237 c-0.453-0.094-0.777-0.246-0.968-0.458c-0.192-0.21-0.287-0.468-0.287-0.77c0-0.251,0.075-0.478,0.226-0.679 c0.153-0.202,0.36-0.365,0.629-0.487c0.267-0.122,0.58-0.185,0.94-0.185c0.472,0,0.86,0.094,1.169,0.279 c0.308,0.185,0.526,0.465,0.651,0.836l-0.396,0.255c-0.094-0.334-0.269-0.577-0.523-0.727c-0.255-0.152-0.555-0.228-0.9-0.228 c-0.267,0-0.498,0.039-0.695,0.118c-0.197,0.078-0.353,0.186-0.462,0.321c-0.109,0.134-0.166,0.29-0.166,0.467 c0,0.177,0.064,0.348,0.19,0.495c0.125,0.148,0.35,0.257,0.67,0.326l1.134,0.246c0.446,0.094,0.758,0.237,0.934,0.429 c0.176,0.192,0.266,0.429,0.266,0.712s-0.078,0.529-0.228,0.736c-0.151,0.207-0.365,0.367-0.643,0.478 c-0.276,0.109-0.602,0.164-0.974,0.164L134.952,7.193z"></path> <path class="cls-1" fill="#010101" d="M109.744,9.838v6.231h-0.452v-4.646l0.055-1.133h-0.009l-2.275,5.778h-0.435l-2.274-5.778h-0.01 l0.057,1.133v4.646h-0.453V9.838h0.71l1.878,4.721l0.311,0.954h0.01l0.301-0.945l1.878-4.729H109.744L109.744,9.838z"></path> <path class="cls-1" fill="#010101" d="M114.398,12.963c0-0.41-0.11-0.728-0.331-0.954c-0.22-0.228-0.535-0.341-0.945-0.341 c-0.357,0-0.666,0.077-0.925,0.232c-0.256,0.154-0.448,0.41-0.575,0.769l-0.386-0.245c0.137-0.372,0.37-0.66,0.694-0.864 c0.322-0.203,0.726-0.307,1.204-0.307c0.346,0,0.65,0.061,0.908,0.185c0.264,0.122,0.466,0.304,0.61,0.544 c0.146,0.238,0.216,0.537,0.216,0.896v2.359c0,0.335,0.152,0.5,0.453,0.5c0.133,0,0.247-0.021,0.341-0.065l-0.029,0.377 c-0.105,0.058-0.243,0.086-0.415,0.086c-0.142,0-0.279-0.028-0.406-0.086c-0.124-0.058-0.228-0.151-0.306-0.283 c-0.078-0.131-0.119-0.311-0.119-0.537v-0.256l0.131-0.01c-0.056,0.271-0.181,0.497-0.371,0.675 c-0.193,0.18-0.414,0.313-0.666,0.397c-0.253,0.086-0.504,0.128-0.757,0.128c-0.295,0-0.559-0.047-0.793-0.141 c-0.233-0.096-0.416-0.231-0.548-0.413c-0.131-0.178-0.198-0.399-0.198-0.665c0-0.352,0.118-0.638,0.355-0.854 c0.234-0.217,0.568-0.367,0.995-0.449l1.955-0.386v0.396l-1.72,0.34c-0.369,0.074-0.646,0.186-0.829,0.331 c-0.183,0.144-0.273,0.344-0.273,0.594c0,0.253,0.097,0.463,0.292,0.609c0.196,0.148,0.47,0.222,0.83,0.222 c0.183,0,0.369-0.025,0.556-0.075c0.191-0.051,0.366-0.131,0.526-0.24c0.158-0.109,0.287-0.25,0.38-0.415 c0.096-0.168,0.145-0.373,0.145-0.609L114.398,12.963L114.398,12.963z"></path> <path class="cls-1" fill="#010101" d="M116.639,16.069v-4.721h0.424l0.037,1.18l-0.076-0.065c0.091-0.259,0.221-0.479,0.396-0.657 c0.176-0.18,0.386-0.316,0.633-0.41c0.244-0.095,0.51-0.143,0.793-0.143c0.352,0,0.664,0.066,0.933,0.198 c0.271,0.131,0.484,0.327,0.638,0.584c0.156,0.259,0.23,0.583,0.23,0.973v3.059h-0.47v-2.908c0-0.517-0.128-0.894-0.383-1.133 c-0.257-0.24-0.587-0.358-0.996-0.358c-0.296,0-0.573,0.066-0.826,0.203c-0.256,0.136-0.462,0.331-0.624,0.59 c-0.16,0.258-0.24,0.572-0.24,0.944v2.662h-0.472L116.639,16.069z"></path> <path class="cls-1" fill="#010101" d="M125.171,12.963c0-0.41-0.109-0.728-0.329-0.954c-0.222-0.228-0.536-0.341-0.946-0.341 c-0.357,0-0.668,0.077-0.925,0.232c-0.258,0.154-0.45,0.41-0.575,0.769l-0.386-0.245c0.138-0.372,0.368-0.66,0.692-0.864 c0.325-0.203,0.727-0.307,1.204-0.307c0.347,0,0.65,0.061,0.911,0.185c0.262,0.122,0.465,0.304,0.607,0.544 c0.146,0.238,0.218,0.537,0.218,0.896v2.359c0,0.335,0.151,0.5,0.452,0.5c0.134,0,0.246-0.021,0.34-0.065l-0.026,0.377 c-0.108,0.058-0.246,0.086-0.418,0.086c-0.143,0-0.276-0.028-0.405-0.086c-0.125-0.058-0.229-0.151-0.307-0.283 c-0.078-0.131-0.119-0.311-0.119-0.537v-0.256l0.134-0.01c-0.057,0.271-0.184,0.497-0.372,0.675 c-0.193,0.18-0.416,0.313-0.668,0.397c-0.253,0.086-0.503,0.128-0.756,0.128c-0.295,0-0.56-0.047-0.794-0.141 c-0.23-0.096-0.415-0.231-0.546-0.413c-0.132-0.178-0.196-0.399-0.196-0.665c0-0.352,0.115-0.638,0.353-0.854 c0.233-0.217,0.567-0.367,0.996-0.449l1.953-0.386v0.396l-1.719,0.34c-0.37,0.074-0.646,0.186-0.83,0.331 c-0.183,0.144-0.273,0.344-0.273,0.594c0,0.253,0.098,0.463,0.294,0.609c0.194,0.148,0.472,0.222,0.828,0.222 c0.186,0,0.369-0.025,0.559-0.075c0.188-0.051,0.364-0.131,0.523-0.24c0.161-0.109,0.288-0.25,0.382-0.415 c0.096-0.168,0.143-0.373,0.143-0.609v-1.444H125.171z"></path> <path class="cls-1" fill="#010101" d="M129.825,15.588c0.466,0,0.831,0.097,1.098,0.291c0.262,0.195,0.394,0.456,0.394,0.784 c0,0.289-0.096,0.541-0.287,0.757c-0.19,0.213-0.456,0.381-0.788,0.5c-0.334,0.118-0.715,0.18-1.144,0.18 c-0.71,0-1.255-0.121-1.632-0.365c-0.378-0.241-0.565-0.546-0.565-0.91c0-0.264,0.094-0.496,0.287-0.689 c0.19-0.195,0.475-0.313,0.844-0.351l-0.037,0.085c-0.2-0.057-0.378-0.15-0.531-0.281c-0.156-0.133-0.231-0.321-0.231-0.567 c0-0.264,0.101-0.479,0.297-0.646c0.199-0.167,0.463-0.263,0.788-0.289l0.501,0.17h-0.198c-0.289,0.02-0.521,0.09-0.693,0.215 c-0.173,0.121-0.261,0.28-0.261,0.475c0,0.214,0.086,0.375,0.251,0.481c0.167,0.106,0.38,0.162,0.638,0.162h1.275H129.825z M129.033,11.253c0.37,0,0.699,0.064,0.985,0.193c0.288,0.129,0.51,0.308,0.666,0.538c0.16,0.23,0.238,0.499,0.238,0.809 c0,0.309-0.078,0.57-0.238,0.808c-0.156,0.236-0.378,0.419-0.666,0.547c-0.283,0.128-0.613,0.194-0.985,0.194 c-0.599,0-1.065-0.145-1.401-0.429c-0.338-0.287-0.507-0.66-0.507-1.12c0-0.308,0.082-0.577,0.241-0.808 c0.162-0.229,0.385-0.409,0.672-0.537c0.285-0.129,0.619-0.194,0.997-0.194L129.033,11.253z M129.101,17.702 c0.37,0,0.688-0.043,0.953-0.132c0.264-0.088,0.467-0.207,0.609-0.354c0.141-0.146,0.213-0.312,0.213-0.495 c0-0.22-0.098-0.396-0.29-0.529c-0.19-0.132-0.482-0.197-0.873-0.197h-1.341c-0.295,0-0.541,0.069-0.735,0.206 c-0.196,0.141-0.293,0.325-0.293,0.558c0,0.283,0.157,0.512,0.467,0.685C128.123,17.617,128.554,17.702,129.101,17.702 L129.101,17.702z M129.033,11.64c-0.416,0-0.755,0.106-1.021,0.316c-0.262,0.212-0.396,0.491-0.396,0.837 s0.134,0.625,0.396,0.84c0.266,0.215,0.606,0.32,1.021,0.32c0.415,0,0.755-0.105,1.014-0.32c0.264-0.215,0.395-0.494,0.395-0.84 s-0.131-0.625-0.395-0.837C129.788,11.746,129.449,11.64,129.033,11.64z M131.319,10.479l0.112,0.416h-0.048 c-0.309,0-0.545,0.079-0.715,0.24c-0.165,0.161-0.25,0.386-0.25,0.675l-0.3-0.151c0-0.239,0.05-0.447,0.15-0.623 c0.101-0.177,0.24-0.313,0.415-0.41c0.179-0.099,0.375-0.146,0.597-0.146H131.319L131.319,10.479z"></path> <path class="cls-1" fill="#010101" d="M134.196,16.163c-0.434,0-0.821-0.097-1.158-0.292c-0.341-0.195-0.605-0.477-0.801-0.846 c-0.189-0.369-0.286-0.807-0.286-1.316s0.094-0.948,0.286-1.316c0.195-0.368,0.454-0.649,0.78-0.845 c0.326-0.194,0.701-0.293,1.125-0.293c0.42,0,0.793,0.095,1.095,0.283c0.302,0.189,0.534,0.452,0.697,0.788 c0.164,0.337,0.248,0.726,0.248,1.166c0,0.058-0.003,0.112-0.007,0.165c-0.002,0.054-0.007,0.103-0.015,0.146h-3.917v-0.425 h3.709l-0.234,0.066c-0.006-0.542-0.149-0.974-0.431-1.293c-0.28-0.322-0.664-0.481-1.155-0.481c-0.342,0-0.64,0.08-0.897,0.24 c-0.26,0.161-0.46,0.394-0.605,0.698c-0.146,0.307-0.217,0.673-0.217,1.101s0.074,0.787,0.222,1.095 c0.148,0.309,0.356,0.543,0.623,0.705c0.269,0.159,0.578,0.24,0.931,0.24s0.677-0.079,0.939-0.237 c0.261-0.156,0.463-0.375,0.609-0.649l0.375,0.215c-0.112,0.229-0.264,0.421-0.452,0.582c-0.188,0.159-0.407,0.284-0.65,0.372 c-0.245,0.089-0.518,0.134-0.813,0.134V16.163z"></path> <path class="cls-1" fill="#010101" d="M137.528,16.069v-4.721h0.426l0.028,0.981c0.138-0.34,0.364-0.604,0.675-0.793 c0.312-0.188,0.659-0.283,1.043-0.283c0.409,0,0.763,0.098,1.063,0.293c0.299,0.194,0.504,0.48,0.617,0.859 c0.083-0.24,0.214-0.446,0.395-0.618c0.187-0.173,0.397-0.307,0.646-0.402c0.243-0.093,0.499-0.141,0.764-0.141 c0.328,0,0.623,0.064,0.892,0.193c0.269,0.128,0.481,0.324,0.643,0.586c0.16,0.261,0.241,0.587,0.241,0.978v3.058h-0.474v-3.013 c0-0.465-0.122-0.813-0.373-1.042c-0.247-0.23-0.577-0.345-0.987-0.345c-0.294,0-0.568,0.07-0.819,0.213 c-0.252,0.143-0.453,0.34-0.6,0.596c-0.149,0.254-0.221,0.549-0.221,0.882v2.719h-0.472v-3.013c0-0.466-0.126-0.813-0.379-1.043 c-0.251-0.229-0.579-0.344-0.981-0.344c-0.284,0-0.55,0.069-0.803,0.207c-0.251,0.139-0.457,0.337-0.612,0.595 c-0.16,0.259-0.238,0.566-0.238,0.926v2.672H137.528L137.528,16.069z"></path> <path class="cls-1" fill="#010101" d="M148.52,16.163c-0.435,0-0.821-0.097-1.159-0.292c-0.342-0.195-0.606-0.477-0.799-0.846 s-0.289-0.807-0.289-1.316s0.097-0.948,0.289-1.316s0.451-0.649,0.779-0.845c0.326-0.194,0.701-0.293,1.121-0.293 c0.423,0,0.795,0.095,1.098,0.283c0.3,0.189,0.534,0.452,0.697,0.788c0.166,0.337,0.246,0.726,0.246,1.166 c0,0.058-0.002,0.112-0.006,0.165c-0.002,0.054-0.007,0.103-0.015,0.146h-3.916v-0.425h3.709l-0.235,0.066 c-0.008-0.542-0.149-0.974-0.429-1.293c-0.28-0.322-0.668-0.481-1.157-0.481c-0.342,0-0.641,0.08-0.897,0.24 c-0.258,0.161-0.46,0.394-0.604,0.698c-0.146,0.307-0.219,0.673-0.219,1.101s0.076,0.787,0.224,1.095 c0.149,0.309,0.355,0.543,0.625,0.705c0.265,0.159,0.575,0.24,0.928,0.24s0.677-0.079,0.94-0.237 c0.26-0.156,0.465-0.375,0.606-0.649l0.377,0.215c-0.112,0.229-0.263,0.421-0.452,0.582c-0.188,0.159-0.407,0.284-0.651,0.372 c-0.246,0.089-0.514,0.134-0.812,0.134V16.163z"></path> <path class="cls-1" fill="#010101" d="M151.852,16.069v-4.721h0.426l0.036,1.18l-0.075-0.065c0.089-0.259,0.222-0.479,0.397-0.657 c0.175-0.18,0.387-0.316,0.631-0.41c0.247-0.095,0.512-0.143,0.793-0.143c0.353,0,0.664,0.066,0.934,0.198 c0.272,0.131,0.485,0.327,0.639,0.584c0.156,0.259,0.231,0.583,0.231,0.973v3.059h-0.472v-2.908 c0-0.517-0.127-0.894-0.383-1.133c-0.256-0.24-0.587-0.358-0.996-0.358c-0.296,0-0.571,0.066-0.826,0.203 c-0.255,0.136-0.461,0.331-0.623,0.59c-0.16,0.258-0.241,0.572-0.241,0.944v2.662h-0.472L151.852,16.069z"></path> <path class="cls-1" fill="#010101" d="M159.927,11.349v0.405h-3.185v-0.405H159.927z M158.159,10.035v4.787c0,0.297,0.068,0.521,0.214,0.675 c0.141,0.155,0.346,0.231,0.617,0.231c0.176,0,0.331-0.03,0.467-0.089c0.134-0.061,0.256-0.146,0.364-0.26L160,15.766 c-0.119,0.121-0.271,0.217-0.453,0.29c-0.181,0.073-0.387,0.108-0.614,0.108c-0.244,0-0.46-0.045-0.65-0.136 c-0.188-0.092-0.335-0.231-0.438-0.422c-0.103-0.188-0.156-0.428-0.156-0.715v-4.723l0.472-0.131V10.035z"></path> <path class="cls-1" fill="#010101" d="M104.419,18.807v6.231h-0.472v-6.231H104.419L104.419,18.807z"></path> <path class="cls-1" fill="#010101" d="M106.213,25.038v-4.72h0.426l0.036,1.179l-0.074-0.064c0.088-0.26,0.22-0.479,0.396-0.657 c0.175-0.18,0.387-0.315,0.632-0.41c0.247-0.096,0.51-0.143,0.793-0.143c0.354,0,0.663,0.065,0.935,0.196 c0.27,0.134,0.482,0.329,0.638,0.586c0.154,0.258,0.231,0.584,0.231,0.974v3.058h-0.472v-2.907c0-0.518-0.129-0.894-0.384-1.135 c-0.254-0.239-0.585-0.359-0.995-0.359c-0.296,0-0.571,0.069-0.828,0.205c-0.253,0.137-0.462,0.331-0.622,0.589 c-0.161,0.26-0.24,0.571-0.24,0.945v2.662h-0.472V25.038z"></path> <path class="cls-1" fill="#010101" d="M114.284,20.318v0.405h-3.181v-0.405H114.284z M112.519,19.005v4.787c0,0.296,0.072,0.521,0.214,0.675 c0.143,0.155,0.348,0.231,0.618,0.231c0.175,0,0.331-0.029,0.467-0.088c0.136-0.062,0.256-0.147,0.364-0.26l0.18,0.386 c-0.12,0.12-0.271,0.217-0.453,0.289s-0.385,0.109-0.614,0.109c-0.244,0-0.462-0.047-0.649-0.138 c-0.19-0.09-0.336-0.23-0.44-0.42c-0.104-0.188-0.155-0.428-0.155-0.716v-4.724l0.472-0.131L112.519,19.005z"></path> <path class="cls-1" fill="#010101" d="M117.223,25.132c-0.435,0-0.822-0.097-1.162-0.291c-0.34-0.196-0.605-0.478-0.798-0.847 c-0.189-0.367-0.288-0.807-0.288-1.315s0.097-0.948,0.288-1.315c0.192-0.369,0.453-0.651,0.778-0.847 c0.328-0.193,0.702-0.291,1.125-0.291c0.422,0,0.794,0.094,1.094,0.281c0.303,0.19,0.535,0.454,0.7,0.789 c0.162,0.336,0.245,0.728,0.245,1.168c0,0.055-0.002,0.11-0.005,0.163c-0.003,0.056-0.009,0.103-0.016,0.146h-3.917v-0.425 h3.711l-0.237,0.065c-0.006-0.54-0.148-0.973-0.429-1.29c-0.281-0.322-0.665-0.481-1.157-0.481c-0.34,0-0.639,0.078-0.896,0.241 c-0.259,0.158-0.459,0.392-0.605,0.696c-0.144,0.306-0.215,0.672-0.215,1.1c0,0.429,0.073,0.787,0.221,1.098 c0.147,0.307,0.357,0.541,0.622,0.702c0.269,0.16,0.578,0.241,0.932,0.241c0.353,0,0.68-0.077,0.938-0.237 c0.261-0.155,0.465-0.374,0.608-0.65l0.379,0.215c-0.114,0.229-0.267,0.423-0.454,0.582c-0.189,0.16-0.405,0.284-0.65,0.373 c-0.246,0.09-0.517,0.133-0.812,0.133V25.132z"></path> <path class="cls-1" fill="#010101" d="M120.557,25.038v-4.72h0.394l0.059,0.991c0.119-0.333,0.311-0.6,0.575-0.793 c0.264-0.196,0.581-0.294,0.954-0.294c0.124,0,0.238,0.013,0.341,0.038c0.1,0.024,0.181,0.067,0.243,0.122l-0.104,0.417 c-0.068-0.045-0.144-0.08-0.227-0.105c-0.083-0.024-0.203-0.037-0.366-0.037c-0.241,0-0.465,0.076-0.682,0.222 c-0.213,0.15-0.388,0.353-0.519,0.616c-0.131,0.259-0.198,0.561-0.198,0.899v2.644H120.557z"></path> <path class="cls-1" fill="#010101" d="M124.124,25.038v-4.72h0.425l0.037,1.179l-0.076-0.064c0.089-0.26,0.22-0.479,0.396-0.657 c0.177-0.18,0.388-0.315,0.632-0.41c0.247-0.096,0.51-0.143,0.794-0.143c0.353,0,0.663,0.065,0.935,0.196 c0.271,0.134,0.484,0.329,0.638,0.586c0.154,0.258,0.23,0.584,0.23,0.974v3.058h-0.472v-2.907c0-0.518-0.129-0.894-0.382-1.135 c-0.256-0.239-0.587-0.359-0.997-0.359c-0.296,0-0.57,0.069-0.825,0.205c-0.256,0.137-0.464,0.331-0.625,0.589 c-0.158,0.26-0.24,0.571-0.24,0.945v2.662h-0.472L124.124,25.038z"></path> <path class="cls-1" fill="#010101" d="M132.66,21.932c0-0.409-0.112-0.726-0.332-0.953c-0.221-0.228-0.533-0.341-0.944-0.341 c-0.358,0-0.667,0.077-0.925,0.231c-0.259,0.155-0.449,0.411-0.576,0.769l-0.386-0.245c0.138-0.37,0.369-0.658,0.694-0.864 c0.323-0.203,0.724-0.306,1.203-0.306c0.347,0,0.649,0.061,0.91,0.185c0.262,0.121,0.465,0.303,0.608,0.544 c0.147,0.238,0.219,0.536,0.219,0.896v2.359c0,0.335,0.149,0.499,0.452,0.499c0.132,0,0.245-0.021,0.34-0.063l-0.028,0.377 c-0.108,0.057-0.245,0.084-0.416,0.084c-0.145,0-0.278-0.027-0.405-0.084c-0.127-0.058-0.229-0.153-0.309-0.284 c-0.078-0.131-0.119-0.31-0.119-0.538v-0.255l0.134-0.009c-0.058,0.27-0.182,0.495-0.374,0.676 c-0.19,0.179-0.413,0.31-0.665,0.396c-0.251,0.086-0.503,0.126-0.756,0.126c-0.295,0-0.56-0.047-0.794-0.141 c-0.231-0.094-0.416-0.23-0.548-0.411c-0.131-0.18-0.195-0.4-0.195-0.665c0-0.352,0.117-0.638,0.352-0.854 c0.236-0.216,0.569-0.366,0.998-0.448l1.952-0.387v0.396l-1.717,0.339c-0.37,0.076-0.647,0.186-0.83,0.331 c-0.185,0.146-0.273,0.345-0.273,0.596c0,0.252,0.096,0.461,0.293,0.607c0.193,0.15,0.473,0.222,0.829,0.222 c0.183,0,0.368-0.023,0.557-0.073c0.19-0.052,0.363-0.133,0.523-0.242s0.289-0.249,0.383-0.415 c0.095-0.167,0.142-0.37,0.142-0.609v-1.444H132.66z"></path> <path class="cls-1" fill="#010101" d="M137.304,20.318v0.405h-3.182v-0.405H137.304z M135.539,19.005v4.787c0,0.296,0.069,0.521,0.211,0.675 c0.142,0.155,0.347,0.231,0.618,0.231c0.176,0,0.332-0.029,0.469-0.088c0.133-0.062,0.254-0.147,0.363-0.26l0.178,0.386 c-0.117,0.12-0.268,0.217-0.452,0.289c-0.182,0.072-0.387,0.109-0.612,0.109c-0.247,0-0.463-0.047-0.652-0.138 c-0.189-0.09-0.336-0.23-0.439-0.42c-0.103-0.188-0.154-0.428-0.154-0.716v-4.724l0.472-0.131V19.005z"></path> <path class="cls-1" fill="#010101" d="M138.55,19.401c-0.118,0-0.215-0.035-0.288-0.108c-0.072-0.073-0.108-0.167-0.108-0.289 c0-0.119,0.036-0.215,0.108-0.287c0.073-0.072,0.167-0.109,0.288-0.109c0.12,0,0.216,0.037,0.289,0.109 c0.071,0.072,0.108,0.168,0.108,0.287c0,0.118-0.037,0.216-0.108,0.289C138.766,19.366,138.67,19.401,138.55,19.401z M138.786,20.317v4.721h-0.472v-4.721H138.786z"></path> <path class="cls-1" fill="#010101" d="M142.392,20.223c0.442,0,0.831,0.097,1.168,0.292s0.601,0.476,0.793,0.847 c0.192,0.367,0.288,0.807,0.288,1.313c0,0.511-0.096,0.951-0.288,1.319s-0.456,0.65-0.793,0.845s-0.726,0.293-1.168,0.293 c-0.439,0-0.829-0.099-1.167-0.293c-0.337-0.194-0.599-0.477-0.793-0.845c-0.19-0.368-0.287-0.809-0.287-1.319 c0-0.507,0.097-0.946,0.287-1.313c0.194-0.371,0.456-0.651,0.793-0.847C141.563,20.319,141.952,20.223,142.392,20.223z M142.392,20.629c-0.357,0-0.67,0.081-0.934,0.246c-0.265,0.163-0.47,0.397-0.617,0.704c-0.15,0.305-0.222,0.672-0.222,1.1 c0,0.429,0.071,0.786,0.222,1.094c0.147,0.31,0.353,0.544,0.617,0.708c0.264,0.164,0.576,0.245,0.934,0.245 c0.359,0,0.672-0.081,0.937-0.245c0.263-0.164,0.47-0.398,0.617-0.708c0.149-0.308,0.223-0.671,0.223-1.094 c0-0.424-0.073-0.795-0.223-1.1c-0.147-0.307-0.354-0.541-0.617-0.704C143.063,20.71,142.752,20.629,142.392,20.629z"></path> <path class="cls-1" fill="#010101" d="M145.987,25.038v-4.72h0.427l0.036,1.179l-0.075-0.064c0.088-0.26,0.221-0.479,0.396-0.657 c0.177-0.18,0.387-0.315,0.632-0.41c0.247-0.096,0.512-0.143,0.795-0.143c0.352,0,0.661,0.065,0.935,0.196 c0.27,0.134,0.482,0.329,0.638,0.586c0.155,0.258,0.229,0.584,0.229,0.974v3.058h-0.472v-2.907c0-0.518-0.129-0.894-0.382-1.135 c-0.256-0.239-0.587-0.359-0.996-0.359c-0.297,0-0.571,0.069-0.829,0.205c-0.252,0.137-0.46,0.331-0.62,0.589 c-0.161,0.26-0.241,0.571-0.241,0.945v2.662h-0.473V25.038z"></path> <path class="cls-1" fill="#010101" d="M154.524,21.932c0-0.409-0.109-0.726-0.33-0.953c-0.223-0.228-0.535-0.341-0.945-0.341 c-0.356,0-0.667,0.077-0.926,0.231c-0.257,0.155-0.449,0.411-0.576,0.769l-0.384-0.245c0.138-0.37,0.368-0.658,0.692-0.864 c0.324-0.203,0.727-0.306,1.204-0.306c0.346,0,0.649,0.061,0.911,0.185c0.261,0.121,0.464,0.303,0.608,0.544 c0.146,0.238,0.217,0.536,0.217,0.896v2.359c0,0.335,0.151,0.499,0.452,0.499c0.134,0,0.247-0.021,0.34-0.063l-0.028,0.377 c-0.106,0.057-0.244,0.084-0.416,0.084c-0.144,0-0.278-0.027-0.404-0.084c-0.126-0.058-0.229-0.153-0.308-0.284 s-0.119-0.31-0.119-0.538v-0.255l0.131-0.009c-0.056,0.27-0.18,0.495-0.372,0.676c-0.191,0.179-0.414,0.31-0.665,0.396 c-0.252,0.086-0.503,0.126-0.756,0.126c-0.296,0-0.56-0.047-0.794-0.141c-0.232-0.094-0.414-0.23-0.547-0.411 c-0.132-0.18-0.196-0.4-0.196-0.665c0-0.352,0.116-0.638,0.352-0.854c0.237-0.216,0.569-0.366,0.998-0.448l1.954-0.387v0.396 l-1.719,0.339c-0.371,0.076-0.647,0.186-0.831,0.331c-0.183,0.146-0.272,0.345-0.272,0.596c0,0.252,0.096,0.461,0.292,0.607 c0.195,0.15,0.472,0.222,0.829,0.222c0.185,0,0.369-0.023,0.558-0.073c0.19-0.052,0.364-0.133,0.524-0.242 s0.288-0.249,0.382-0.415c0.095-0.167,0.142-0.37,0.142-0.609v-1.444H154.524z"></path> <path class="cls-1" fill="#010101" d="M157.195,18.146v5.777c0,0.289,0.052,0.496,0.151,0.614c0.101,0.119,0.258,0.178,0.473,0.178 c0.131,0,0.238-0.01,0.316-0.027c0.077-0.02,0.17-0.05,0.278-0.094l-0.067,0.415c-0.08,0.038-0.173,0.069-0.277,0.091 c-0.104,0.022-0.219,0.031-0.344,0.031c-0.335,0-0.584-0.094-0.751-0.287c-0.167-0.191-0.251-0.492-0.251-0.9v-5.797 L157.195,18.146L157.195,18.146z"></path> </g> </g> <g> <path class="cls-1" fill="#010101" d="M0.013,25.108L5.346,7.513C5.39,7.369,5.54,7.288,5.684,7.331l18.197,5.408 c0.235,0.069,0.265,0.39,0.048,0.502L0.397,25.427C0.183,25.538-0.058,25.338,0.013,25.108z"></path> <path class="cls-2" fill="#010101" d="M0.017,0.895l5.332,17.592c0.044,0.146,0.195,0.226,0.34,0.184l18.192-5.408 c0.236-0.071,0.266-0.392,0.048-0.505L0.403,0.573C0.188,0.461-0.055,0.664,0.017,0.895z"></path> </g> </g> </g> </svg> 